# xmcd
#
# Track frame offsets: 
#        150
#        13798
#        25588
#        38318
#        49265
#        62330
#        75085
#        87925
#        99228
#        112453
#        125458
#        138018
#        149300
#        161295
#        173968
#        185318
#        198608
#        210578
#        222743
#        235605
#        251358
#        261283
#        273268
#        286168
#        297428
#        311863
#
# Disc length: 4339 seconds
#
# Revision: 3
# Processed by: cddbd v1.5.2PL0 Copyright (c) Steve Scherf et al.
# Submitted via: ExactAudioCopyFreeDBPlugin 1.0
#
DISCID=6b10f11a
DTITLE=Various Artist - The Specialty Story [box set]
DYEAR=1994
DGENRE=Rhythm and Blues
TTITLE0=Joe Liggins and His Honeydrippers - Pink Champagne
TTITLE1=Roy Milton and His Solid Senders - Junior Jives
TTITLE2=Roy Milton and His Solid Senders - Where There is No Love
TTITLE3=King Perry and His Pied Pipers - Everything's Gonna Be All Right
TTITLE3=Tonight
TTITLE4=Percy Mayfield - Please Send Me Someone to Love
TTITLE5=Percy Mayfield - Strange Things Happening
TTITLE6=Joe Liggins and His Honeydrippers - Little Joe's Boogie
TTITLE7=Roy Milton and His Solid Senders - Oh Babe!
TTITLE8=Percy Mayfield - Lost Love
TTITLE9=Joe Liggins and His Honeydrippers - Frankie Lee
TTITLE10=Percy Mayfield - What a Fool I Was
TTITLE11=Camille Howard - Money Blues
TTITLE12=Roy Milton and His Solid Senders - It's Later Than You Think
TTITLE13=Roy Milton and His Solid Senders - T-Town Twist
TTITLE14=Roy Milton and His Solid Senders - I Have News for You
TTITLE15=Percy Mayfield - Prayin' for Your Return
TTITLE16=Amos Easton (Bumble Bee Slim) - Strange Angel
TTITLE17=Roy Milton and His Solid Senders - Best Wishes
TTITLE18=Percy Mayfield - Cry Baby
TTITLE19=Lil Greenwood - Love Will Make You a Slave
TTITLE20=Lester Williams - I Can't Lose with the Stuff I Use
TTITLE21=The Four Flames - Wheel of Fortune
TTITLE22=Percy Mayfield - The Big Question
TTITLE23=Lloyd Price - Lawdy Miss Clawdy
TTITLE24=Roy Milton and His Solid Senders - So Tired
TTITLE25=Roy Milton and His Solid Senders - Night and Day (I Miss You 
TTITLE25=So)
EXTD=
EXTT0=
EXTT1=
EXTT2=
EXTT3=
EXTT4=
EXTT5=
EXTT6=
EXTT7=
EXTT8=
EXTT9=
EXTT10=
EXTT11=
EXTT12=
EXTT13=
EXTT14=
EXTT15=
EXTT16=
EXTT17=
EXTT18=
EXTT19=
EXTT20=
EXTT21=
EXTT22=
EXTT23=
EXTT24=
EXTT25=
PLAYORDER=
